<?xml version="1.0" encoding="utf-8"?>
<!-- Generator: Adobe Illustrator 24.0.2, SVG Export Plug-In . SVG Version: 6.00 Build 0)  -->
<svg version="1.1" id="Layer_1" xmlns="http://www.w3.org/2000/svg" xmlns:xlink="http://www.w3.org/1999/xlink" x="0px" y="0px"
	 viewBox="0 0 831 379.5" style="enable-background:new 0 0 831 379.5;" xml:space="preserve">
<style type="text/css">
	.st0{fill:black;}
</style>
<g>
	<path fill="white" d="M359.3,378.1c-46.1,0-89.9,0-134.7,0c0.7-1.8,0.8-4.4,2-5.2c16.4-10.1,23.2-26.2,26.6-43.8c2.6-13.3,4.2-27.1,4.3-40.7
		c0.3-43-0.1-86-0.8-129c-0.5-30.1-1.2-60.2-6.9-89.9c-3.1-16.1-13-23.6-28.9-20.3c-33,6.8-62.2,20.6-82.2,49.4c-7,10-10,21-9,33.2
		c1,13,7.2,20.9,20,24.2c8.5,2.2,17.1,3.9,25.7,5.7c12.2,2.6,19.9,10.4,21.4,21.8c1.7,12.8-3.6,24.1-13.8,29.3
		c-10.8,5.5-23.8,4.2-32.1-4.2c-4.2-4.2-7.6-9.5-10.3-14.8c-9-18-13.2-37.5-15-57.5c-2.3-24.8,10.7-42.5,27.9-57.8
		c13.3-11.8,28.9-20,45.1-27c11.8-5.1,24-9.5,35.7-14.8c18.3-8.3,36.3-17.1,54.5-25.7c7.4-3.5,14.8-7.1,22.5-9.9
		c7.3-2.7,11.1-0.2,11.2,7.5c0.6,33,1.2,66,1.3,99c0.2,61.4-0.2,122.8,0.1,184.1c0.1,17.5,0.1,35.3,5.7,52.2
		c4.3,13,12,23.1,25.2,28.4C356.3,373.2,357.3,375.6,359.3,378.1z"/>
	<path fill="white" d="M717.3,150.8c41.1,2.3,78.7,17.9,100,58.8c33.7,64.4,2.5,137.5-66.2,161.8c-42.5,15-82.7,7.9-119-18.1
		c-60.1-43-55.7-138,6.1-179.8C661.2,158,686.8,151.7,717.3,150.8z M663.8,261.3c0.2,20.3,3.7,46.5,15.4,70.9
		c6.4,13.3,15,24.7,28,32.3c9.3,5.4,13.5,5.2,21.4-2.2c3.5-3.3,6.9-7.1,9.2-11.3c3.7-6.8,7.2-13.9,9.5-21.3
		c9.5-30.4,10.1-61.5,5.3-92.7c-2.7-17.9-7.1-35.4-16.9-50.7c-4.6-7.3-10.5-14.4-17.4-19.4c-12-8.6-16.1-7.6-27.2,1.1
		c-8.9,7-14,16.7-17.9,27C666.1,214.2,663.8,234.3,663.8,261.3z"/>
	<path fill="white" d="M430.8,252.1c-0.2,20.4,1.5,39.5,10.7,57.2c16.7,32.1,55.5,43.6,89.4,26.4c6-3.1,11.7-7.1,17.1-11.2
		c5.2-4.1,9.8-8.9,15-13.7c1.4,1,3,2.1,4.5,3.2c-38.6,60.8-89.3,77-144.7,57.1c-37.4-13.5-57.4-42.4-63.6-81.1
		c-5.5-34.1-0.5-66.2,20.2-94.8c29.3-40.5,84.2-56,127.4-35.7c28.9,13.6,44.7,38.1,53.7,67.6c1.4,4.7,2.6,9.4,3.4,14.2
		c0.9,5.5-0.9,7.5-6.5,7.6c-39.9,1-79.8,1.9-119.7,2.8C435.7,251.8,433.6,252,430.8,252.1z M431.3,242.9c21.1-1.3,41.4-2.5,61.6-4
		c1.2-0.1,3.3-2.6,3.3-4c0-5.1-0.5-10.1-1.2-15.2c-1.9-14.4-4.9-28.4-11.7-41.4c-3.5-6.7-7.7-13-15-15.8c-2.4-0.9-6.8-0.8-8.4,0.8
		c-5.6,5.5-11.6,11.3-15.3,18.1C434.5,200,432.5,220.6,431.3,242.9z"/>
	<path fill="white" d="M111.9,152.9c-2.1,1.7-4.3,3.3-6.3,5.1c-15.9,14.1-24.4,32.1-27.7,52.8c-4.1,25.6-6.6,51.3-0.6,76.8
		c6.4,27.2,21,47.6,50.1,53.5c26,5.2,48.1-3.3,66.8-21.6c3.6-3.5,6.8-7.5,10.5-11.6c1.7,1,3.5,2.1,5.8,3.4c-2,3.3-3.6,6.3-5.5,9.1
		c-17.7,25.8-39.8,46.3-70.7,54.9C68.6,393.5,7.3,351,0.8,283.4c-2.7-28.2,0.9-55,14.7-79.9C37.7,163.3,77.7,148.8,111.9,152.9z"/>
	<path class="st0" d="M663.8,261.3c0-26.9,2.2-47,9.5-66.3c3.9-10.4,9-20.1,17.9-27c11-8.7,15.2-9.7,27.2-1.1
		c6.9,5,12.7,12.2,17.4,19.4c9.8,15.3,14.2,32.9,16.9,50.7c4.8,31.3,4.2,62.3-5.3,92.7c-2.3,7.4-5.8,14.5-9.5,21.3
		c-2.3,4.2-5.6,8-9.2,11.3c-8,7.4-12.1,7.6-21.4,2.2c-13-7.6-21.6-19-28-32.3C667.5,307.8,664,281.6,663.8,261.3z"/>
	<path class="st0" d="M431.3,242.9c1.2-22.3,3.2-42.9,13.4-61.5c3.7-6.8,9.7-12.6,15.3-18.1c1.6-1.6,6-1.7,8.4-0.8
		c7.3,2.8,11.5,9.1,15,15.8c6.7,13,9.8,27.1,11.7,41.4c0.7,5,1.2,10.1,1.2,15.2c0,1.4-2,3.9-3.3,4
		C472.7,240.4,452.4,241.6,431.3,242.9z"/>
</g>
</svg>
